<?xml version="1.0" encoding="UTF-8"?>
<svg width="191px" height="561px" viewBox="0 0 191 561" version="1.1" xmlns="http://www.w3.org/2000/svg" xmlns:xlink="http://www.w3.org/1999/xlink">
    <!-- Generator: Sketch 52.3 (67297) - http://www.bohemiancoding.com/sketch -->
    <title>bg_plus_1</title>
    <desc>Created with Sketch.</desc>
    <g id="Pre-registration" stroke="none" stroke-width="1" fill="none" fill-rule="evenodd" opacity="0.2">
        <g id="Onboard.1" transform="translate(-184.000000, -21.000000)" fill="#FFFFFF">
            <g id="bg_plus_1" transform="translate(184.000000, 21.000000)">
                <path d="M215.818516,446.353462 L192.795998,446.353462 L192.795998,424.464462 C192.795998,420.711123 189.566451,417.640583 185.618746,417.640583 C181.671041,417.640583 178.441493,420.711123 178.441493,424.464462 L178.441493,446.353462 L155.418975,446.353462 C151.47127,446.353462 148.241723,449.424002 148.241723,453.177341 C148.241723,456.93068 151.47127,460.00122 155.418975,460.00122 L178.441493,460.00122 L178.441493,481.890219 C178.441493,485.643558 181.671041,488.714098 185.618746,488.714098 C189.566451,488.714098 192.795998,485.643558 192.795998,481.890219 L192.795998,460.00122 L215.818516,460.00122 C219.766221,460.00122 222.995768,456.93068 222.995768,453.177341 C222.995768,449.424002 219.766221,446.353462 215.818516,446.353462" id="Path"></path>
                <path d="M53.5829139,452.945967 L35.3286107,452.945967 L35.3286107,434.690979 C35.3286107,431.560769 32.7671562,429 29.6369465,429 C26.5067367,429 23.9459675,431.560769 23.9459675,434.690979 L23.9459675,452.945967 L5.69166423,452.945967 C2.56076922,452.945967 0,455.506737 0,458.636946 C0,461.767156 2.56076922,464.327925 5.69166423,464.327925 L23.9459675,464.327925 L23.9459675,482.582914 C23.9459675,485.713124 26.5067367,488.273893 29.6369465,488.273893 C32.7671562,488.273893 35.3286107,485.713124 35.3286107,482.582914 L35.3286107,464.327925 L53.5829139,464.327925 C56.7131234,464.327925 59.2738931,461.767156 59.2738931,458.636946 C59.2738931,455.506737 56.7131234,452.945967 53.5829139,452.945967" id="Path" opacity="0.5"></path>
                <path d="M72.447018,26.3100715 L56.9644026,26.3100715 L56.9644026,10.8268749 C56.9644026,8.17194841 54.7918729,6 52.1369465,6 C49.48202,6 47.3100715,8.17194841 47.3100715,10.8268749 L47.3100715,26.3100715 L31.8274561,26.3100715 C29.1719484,26.3100715 27,28.4820199 27,31.1369463 C27,33.7918729 29.1719484,35.9638213 31.8274561,35.9638213 L47.3100715,35.9638213 L47.3100715,51.4470179 C47.3100715,54.1019443 49.48202,56.2738927 52.1369465,56.2738927 C54.7918729,56.2738927 56.9644026,54.1019443 56.9644026,51.4470179 L56.9644026,35.9638213 L72.447018,35.9638213 C75.1019443,35.9638213 77.2738931,33.7918729 77.2738931,31.1369463 C77.2738931,28.4820199 75.1019443,26.3100715 72.447018,26.3100715" id="Path-Copy-3" opacity="0.5"></path>
                <path d="M89.0538409,108.888207 L114.888209,108.888207 L114.888209,83.0538431 C114.888209,78.6239873 118.512191,75 122.94205,75 C127.371909,75 130.995891,78.6239873 130.995891,83.0538431 L130.995891,108.888207 L156.830259,108.888207 C161.26011,108.888207 164.8841,112.512193 164.8841,116.94205 C164.8841,121.371906 161.26011,124.995893 156.830259,124.995893 L130.995891,124.995893 L130.995891,150.830256 C130.995891,155.260112 127.371909,158.8841 122.94205,158.8841 C118.512191,158.8841 114.888209,155.260112 114.888209,150.830256 L114.888209,124.995893 L89.0538409,124.995893 C84.6239896,124.995893 81,121.371906 81,116.94205 C81,112.512193 84.6239896,108.888207 89.0538409,108.888207" id="Path" opacity="0.7"></path>
                <path d="M98.7495641,24.192484 L117.192486,24.192484 L117.192486,5.74956573 C117.192486,2.58713175 119.779614,0 122.94205,0 C126.104486,0 128.691614,2.58713175 128.691614,5.74956573 L128.691614,24.192484 L147.134535,24.192484 C150.296966,24.192484 152.8841,26.7796152 152.8841,29.9420498 C152.8841,33.1044843 150.296966,35.6916155 147.134535,35.6916155 L128.691614,35.6916155 L128.691614,54.1345338 C128.691614,57.2969678 126.104486,59.8840995 122.94205,59.8840995 C119.779614,59.8840995 117.192486,57.2969678 117.192486,54.1345338 L117.192486,35.6916155 L98.7495641,35.6916155 C95.5871334,35.6916155 93,33.1044843 93,29.9420498 C93,26.7796152 95.5871334,24.192484 98.7495641,24.192484" id="Path-Copy-2" opacity="0.5"></path>
                <path d="M86.2196112,517.910583 L109.374338,517.910583 L109.374338,495.830722 C109.374338,492.044656 112.623422,488.947342 116.593942,488.947342 C120.564468,488.947342 123.812686,492.044656 123.812686,495.830722 L123.812686,517.910583 L146.967413,517.910583 C150.937932,517.910583 154.187017,521.007896 154.18615,524.793963 C154.18615,528.580029 150.937932,531.677343 146.967413,531.677343 L123.812686,531.677343 L123.812686,553.757203 C123.812686,557.543269 120.563601,560.640583 116.593075,560.640583 C112.622549,560.640583 109.374338,557.543269 109.374338,553.757203 L109.374338,531.677343 L86.2196112,531.677343 C82.2490848,531.677343 79,528.580029 79,524.793963 C79.000867,521.007896 82.2490848,517.910583 86.2196112,517.910583" id="Path"></path>
            </g>
        </g>
    </g>
</svg>