<?xml version="1.0" encoding="UTF-8"?>
<svg width="356px" height="588px" viewBox="0 0 356 588" version="1.1" xmlns="http://www.w3.org/2000/svg" xmlns:xlink="http://www.w3.org/1999/xlink">
    <!-- Generator: Sketch 52.3 (67297) - http://www.bohemiancoding.com/sketch -->
    <title>bg_plus_3</title>
    <desc>Created with Sketch.</desc>
    <g id="Pre-registration" stroke="none" stroke-width="1" fill="none" fill-rule="evenodd" opacity="0.2">
        <g id="Onboard.3" transform="translate(-19.000000, -34.000000)" fill="#FFFFFF">
            <g id="bg_plus_3" transform="translate(19.000000, 34.000000)">
                <path d="M322.498524,538.282273 L296.777145,538.282273 L296.777145,512.63584 C296.777145,508.238208 293.169007,504.640583 288.758524,504.640583 C284.348041,504.640583 280.739903,508.238208 280.739903,512.63584 L280.739903,538.282273 L255.018524,538.282273 C250.608041,538.282273 246.999903,541.879898 246.999903,546.27753 C246.999903,550.675161 250.608041,554.272786 255.018524,554.272786 L280.739903,554.272786 L280.739903,579.91922 C280.739903,584.316851 284.348041,587.914476 288.758524,587.914476 C293.169007,587.914476 296.777145,584.316851 296.777145,579.91922 L296.777145,554.272786 L322.498524,554.272786 C326.909007,554.272786 330.517145,550.675161 330.517145,546.27753 C330.517145,541.879898 326.909007,538.282273 322.498524,538.282273"
                    id="Path" />
                <path d="M80.1755079,506.760697 L98.9972158,506.760697 L98.9972158,488.646947 C98.9972158,485.540957 101.637479,483 104.864866,483 C108.092253,483 110.732517,485.540957 110.732517,488.646947 L110.732517,506.760697 L129.554225,506.760697 C132.781606,506.760697 135.421875,509.301653 135.421875,512.407644 C135.421875,515.513635 132.781606,518.054592 129.554225,518.054592 L110.732517,518.054592 L110.732517,536.168341 C110.732517,539.274332 108.092253,541.815288 104.864866,541.815288 C101.637479,541.815288 98.9972158,539.274332 98.9972158,536.168341 L98.9972158,518.054592 L80.1755079,518.054592 C76.9481262,518.054592 74.3078575,515.513635 74.3078575,512.407644 C74.3078575,509.301653 76.9481262,506.760697 80.1755079,506.760697"
                    id="Path" opacity="0.5" />
                <path d="M5.95271663,508.835318 L25.0472834,508.835318 L25.0472834,490.664682 C25.0472834,487.548937 27.7258264,485 31,485 C34.2741736,485 36.9527166,487.548937 36.9527166,490.664682 L36.9527166,508.835318 L56.0472834,508.835318 C59.3214565,508.835318 62,511.384254 62,514.5 C62,517.615746 59.3214565,520.164682 56.0472834,520.164682 L36.9527166,520.164682 L36.9527166,538.335318 C36.9527166,541.451063 34.2741736,544 31,544 C27.7258264,544 25.0472834,541.451063 25.0472834,538.335318 L25.0472834,520.164682 L5.95271663,520.164682 C2.67854355,520.164682 0,517.615746 0,514.5 C0,511.384254 2.67854355,508.835318 5.95271663,508.835318"
                    id="Path" opacity="0.5" />
                <path d="M314.065945,110.935029 L339.935031,110.935029 L339.935031,85.0649709 C339.935031,80.6289945 343.564997,77 348.000969,77 C352.436948,77 356.065945,80.6289945 356.065945,85.0649709 L356.065945,110.935029 L381.935031,110.935029 C386.371003,110.935029 390.000968,114.564023 390,119 C390,123.435977 386.371003,127.064971 381.935031,127.064971 L356.065945,127.064971 L356.065945,152.935029 C356.065945,157.371005 352.435979,161 348,161 C343.56402,161 339.935031,157.371005 339.935031,152.935029 L339.935031,127.064971 L314.065945,127.064971 C309.629965,127.064971 306,123.435977 306,119 C306.000969,114.564023 309.629965,110.935029 314.065945,110.935029"
                    id="Path" opacity="0.5" />
                <path d="M234.749564,112.192484 L253.192486,112.192484 L253.192486,93.7495657 C253.192486,90.5871318 255.779614,88 258.94205,88 C262.104486,88 264.691614,90.5871318 264.691614,93.7495657 L264.691614,112.192484 L283.134535,112.192484 C286.296966,112.192484 288.8841,114.779615 288.8841,117.94205 C288.8841,121.104484 286.296966,123.691615 283.134535,123.691615 L264.691614,123.691615 L264.691614,142.134534 C264.691614,145.296968 262.104486,147.8841 258.94205,147.8841 C255.779614,147.8841 253.192486,145.296968 253.192486,142.134534 L253.192486,123.691615 L234.749564,123.691615 C231.587133,123.691615 229,121.104484 229,117.94205 C229,114.779615 231.587133,112.192484 234.749564,112.192484"
                    id="Path-Copy-6" opacity="0.5" />
                <path d="M318.447018,20.3100715 L302.964403,20.3100715 L302.964403,4.8268749 C302.964403,2.17194841 300.791873,0 298.136946,0 C295.48202,0 293.310072,2.17194841 293.310072,4.8268749 L293.310072,20.3100715 L277.827456,20.3100715 C275.171948,20.3100715 273,22.4820199 273,25.1369463 C273,27.7918729 275.171948,29.9638213 277.827456,29.9638213 L293.310072,29.9638213 L293.310072,45.4470179 C293.310072,48.1019443 295.48202,50.2738927 298.136946,50.2738927 C300.791873,50.2738927 302.964403,48.1019443 302.964403,45.4470179 L302.964403,29.9638213 L318.447018,29.9638213 C321.101944,29.9638213 323.273893,27.7918729 323.273893,25.1369463 C323.273893,22.4820199 321.101944,20.3100715 318.447018,20.3100715"
                    id="Path-Copy-6" opacity="0.7" />
            </g>
        </g>
    </g>
</svg>