<svg xmlns="http://www.w3.org/2000/svg" 
     viewBox="0 0 18 18">
    <title>NHS App messages icon</title>
    <desc>NHS App messages icon</desc>
    <path d="M17.25,3.0249v9.3205a.826.826,0,0,1-.8271.8249H9.3a.8286.8286,0,0,0-.53.1913l-3.9041,3.246a.8279.8279,0,0,1-1.3566-.64l.0129-1.9672a.826.826,0,0,0-.8271-.83H1.5771A.826.826,0,0,1,.75,12.3454v-9.32A.826.826,0,0,1,1.5771,2.2H16.4229A.826.826,0,0,1,17.25,3.0249Z" 
          style="fill:none;stroke:#212B32;stroke-miterlimit:10;stroke-width:1.5px"/>
</svg>