<svg xmlns="http://www.w3.org/2000/svg" 
     viewBox="0 0 18 18">
  <title>NHS App help icon</title>
  <desc>NHS App help icon</desc>
  <path d="M8.2326,11.3326a3.3516,3.3516,0,0,1,1.0022-2.519c.5813-.71,1.4906-1.5211,1.4906-2.6193,0-1.1835-1.0711-1.7075-2.089-1.7075a4.6541,4.6541,0,0,0-1.6374.2671.6084.6084,0,0,1-.8221-.5434l-.0129-.182a.6419.6419,0,0,1,.4176-.653A6.5653,6.5653,0,0,1,8.8139,3c1.7624,0,3.4919,1.0645,3.4919,3.076,0,1.7742-1.3415,2.7039-2.2148,4.0731a2.0887,2.0887,0,0,0-.3393,1.2337v.3046H8.2326Zm.4612,1.7742h.5953a.6215.6215,0,0,1,.6072.635v.6232A.6215.6215,0,0,1,9.2891,15H8.6938a.6216.6216,0,0,1-.6072-.635v-.6232A.6216.6216,0,0,1,8.6938,13.1068Z" 
        style="fill:#000000"/>
  <circle cx="9" 
          cy="9" 
          r="8.25" 
          style="fill:none;stroke:#000000;stroke-miterlimit:10;stroke-width:1.5px"/>
</svg>