<?xml version="1.0" encoding="UTF-8"?>
<svg  viewBox="0 0 25 25" version="1.0" xmlns="http://www.w3.org/2000/svg" xmlns:xlink="http://www.w3.org/1999/xlink">
    <title>NHS App close icon</title>
    <desc>NHS App close icon</desc>
    <path
            id="path"
            fill="#ffffff"
            d="M17,18.5c-0.4,0 -0.8,-0.1 -1.1,-0.4l-10,-10c-0.6,-0.6 -0.6,-1.6 0,-2.1 0.6,-0.6 1.5,-0.6 2.1,0l10,10c0.6,0.6 0.6,1.5 0,2.1 -0.3,0.3 -0.6,0.4 -1,0.4z"/>
    <path
            id="path_1"
            fill="#ffffff"
            d="M7,18.5c-0.4,0 -0.8,-0.1 -1.1,-0.4 -0.6,-0.6 -0.6,-1.5 0,-2.1l10,-10c0.6,-0.6 1.5,-0.6 2.1,0 0.6,0.6 0.6,1.5 0,2.1l-10,10c-0.3,0.3 -0.6,0.4 -1,0.4z"/>
</svg>