<?xml version="1.0" ?>
<svg height="48" viewBox="0 0 48 48" width="48" xmlns="http://www.w3.org/2000/svg">
  <path d="M1,1h46v46h-46z" fill="#00000000" stroke="#515151" stroke-linecap="round" stroke-width="2"/>
  <path d="M7.33,6.03h28.77v35.94h-28.77z" fill="#00000000" stroke="#515151" stroke-linecap="round" stroke-linejoin="round" stroke-width="2"/>
  <path d="M36.1,31.48l4.57,0l0,-25.45l-4.57,0" fill="#00000000" stroke="#515151" stroke-linecap="round" stroke-linejoin="round" stroke-width="2"/>
  <path d="M13.42,32.18L30.01,32.18" fill="#00000000" stroke="#515151" stroke-linecap="round" stroke-linejoin="round" stroke-width="2"/>
  <path d="M13.42,36.24L30.01,36.24" fill="#00000000" stroke="#515151" stroke-linecap="round" stroke-linejoin="round" stroke-width="2"/>
  <path d="M24.16,21.78l0,3.52l-4.89,0l0,-3.52l-3.51,0l0,-4.89l3.51,0l0,-3.51l4.89,0l0,3.51l3.52,0l0,4.89l-3.52,0z" fill="#00000000" stroke="#515151" stroke-linecap="round" stroke-linejoin="round" stroke-width="2"/>
  <path d="M36.43,23L40.35,23" fill="#00000000" stroke="#515151" stroke-linecap="round" stroke-linejoin="round" stroke-width="2"/>
  <path d="M36.43,14.66L40.35,14.66" fill="#00000000" stroke="#515151" stroke-linecap="round" stroke-linejoin="round" stroke-width="2"/>
</svg>
