<svg xmlns="http://www.w3.org/2000/svg" 
     viewBox="0 0 18 18">
  <title>NHS App your health icon</title>
  <desc>NHS App your health icon</desc>
  <path d="M16.8977,5.648a4.2893,4.2893,0,0,1-.6783,2.3242.8594.8594,0,0,1-.0743.0973l-.3345.4182a.2718.2718,0,0,1-.0836.0972L9.6926,16.1744a.8764.8764,0,0,1-1.3855,0L2.1894,8.4877,1.8271,8.04a.2959.2959,0,0,0-.0465-.0681A4.2893,4.2893,0,0,1,1.1023,5.648a2.664,2.664,0,0,1,.0093-.2723,4.057,4.057,0,0,1,3.9675-3.89c1.7478,0,3.4668,2.5746,3.82,3.176a.0816.0816,0,0,0,.1416.0021c.3815-.5974,2.1307-3.1781,3.8806-3.1781a4.057,4.057,0,0,1,3.9675,3.89A2.664,2.664,0,0,1,16.8977,5.648Z" 
        style="fill:none;stroke:#212B32;stroke-miterlimit:10;stroke-width:1.5px"/>
  <rect x="5.005" 
        y="4.375" 
        width="0.99" 
        height="4.125" 
        rx="0.2977" 
        style="fill:#212B32"/>
  <rect x="5.005" 
        y="4.375" 
        width="0.99" 
        height="4.125" 
        rx="0.2977" 
        transform="translate(11.9375 0.9375) rotate(90)" 
        style="fill:#212B32"/>
</svg>