<?xml version="1.0" ?>
<svg height="48" viewBox="0 0 48 48" width="48" xmlns="http://www.w3.org/2000/svg">
  <path d="M1,1h46v46h-46z" fill="#00000000" stroke="#515151" stroke-linecap="round" stroke-width="2"/>
  <path d="M14.33,24m-2.67,0a2.67,2.67 0,1 1,5.34 0a2.67,2.67 0,1 1,-5.34 0" fill="#00000000" stroke="#515151" stroke-linecap="round" stroke-linejoin="round" stroke-width="2"/>
  <path d="M24,24m-2.67,0a2.67,2.67 0,1 1,5.34 0a2.67,2.67 0,1 1,-5.34 0" fill="#00000000" stroke="#515151" stroke-linecap="round" stroke-linejoin="round" stroke-width="2"/>
  <path d="M33.67,24m-2.67,0a2.67,2.67 0,1 1,5.34 0a2.67,2.67 0,1 1,-5.34 0" fill="#00000000" stroke="#515151" stroke-linecap="round" stroke-linejoin="round" stroke-width="2"/>
</svg>
