<svg xmlns="http://www.w3.org/2000/svg" 
     viewBox="0 0 18 18">
  <title>NHS App appointments icon</title>
  <desc>NHS App appointments icon</desc>
  <path d="M1,16H17v.5a.4951.4951,0,0,1-.5.5H1.5a.4951.4951,0,0,1-.5-.5Z" 
        style="fill:#005EB8;stroke:#212B32;stroke-linecap:round;stroke-miterlimit:10;stroke-width:1.79px"/>
  <path d="M17.9,1.97V15.5a.5.5,0,0,1-1,0V2.86H14.25v.39a.75.75,0,0,1-1.5,0V2.86H5.25v.39a.75.75,0,0,1-1.5,0V2.86H1.1V15.59a.5.5,0,0,1-1,0V1.97a.8963.8963,0,0,1,.9-.9H3.75V.81a.75.75,0,1,1,1.5,0v.26h7.5V.81a.75.75,0,0,1,1.5,0v.26H17A.8963.8963,0,0,1,17.9,1.97Z" 
        style="fill:#212B32"/>
  <rect x="2" 
        y="5" 
        width="3" 
        height="3" 
        rx="0.8874" 
        style="fill:#212B32"/>
</svg>