<?xml version="1.0" ?>
<svg height="48" viewBox="0 0 48 48" width="48" xmlns="http://www.w3.org/2000/svg">
  <path d="M1,1h46v46h-46z" fill="#00000000" stroke="#515151" stroke-linecap="round" stroke-width="2"/>
  <path d="M37.58,35.89l-4.53,4.33a5.09,5.09 0,0 1,-7.16 -0.16h0a5.08,5.08 0,0 1,0.17 -7.16l4.53,-4.33" fill="#00000000" stroke="#515151" stroke-linecap="round" stroke-linejoin="round" stroke-width="2"/>
  <path d="M30.62,28.54l7,7.32 4.57,-4.36a5.08,5.08 0,0 0,0.16 -7.16h0a5.07,5.07 0,0 0,-7.15 -0.16Z" fill="#00000000" stroke="#515151" stroke-linecap="round" stroke-linejoin="round" stroke-width="2"/>
  <path d="M11.14,6.39L26.22,6.39A1.96,1.96 0,0 1,28.18 8.35L28.18,13.29A1.96,1.96 0,0 1,26.22 15.25L11.14,15.25A1.96,1.96 0,0 1,9.18 13.29L9.18,8.35A1.96,1.96 0,0 1,11.14 6.39z" fill="#00000000" stroke="#515151" stroke-linecap="round" stroke-linejoin="round" stroke-width="2"/>
  <path d="M12.49,15.25v2.52l-6,3.5c-1.23,0.92 -2.22,1.31 -2.22,2.53V36.46a2.23,2.23 0,0 0,2.22 2.22h18.3" fill="#00000000" stroke="#515151" stroke-linecap="round" stroke-linejoin="round" stroke-width="2"/>
  <path d="M32.76,26.39V23.8c0,-1.22 -1.21,-1.83 -2.22,-2.53l-6.17,-3.5V15.25" fill="#00000000" stroke="#515151" stroke-linecap="round" stroke-linejoin="round" stroke-width="2"/>
  <path d="M20.79,29.91l0,3.52l-4.89,0l0,-3.52l-3.52,0l0,-4.89l3.52,0l0,-3.51l4.89,0l0,3.51l3.51,0l0,4.89l-3.51,0z" fill="#00000000" stroke="#515151" stroke-linecap="round" stroke-linejoin="round" stroke-width="2"/>
</svg>
