<?xml version="1.0" ?>
<svg height="26" viewBox="0 0 26 26" width="26" xmlns="http://www.w3.org/2000/svg">
    <title>NHS App settings icon</title>
    <desc>NHS App settings icon</desc>
    <path d="M14.4503,25L11.5493,25C10.9699,25 10.49,24.5658 10.4329,23.9903L10.1355,22.2081C9.5767,22.0344 9.0338,21.8087 8.5151,21.5359L7.0224,22.6019C6.844,22.7498 6.5918,22.8402 6.3332,22.8402C6.0333,22.8402 5.7518,22.7233 5.5396,22.5111L3.4885,20.46C3.0789,20.0503 3.0471,19.4039 3.414,18.9558L4.4641,17.4849C4.1904,16.9654 3.9652,16.422 3.7919,15.8648L1.9835,15.5631C1.4346,15.5104 1,15.0305 1,14.4503L1,11.5497C1,10.9703 1.4342,10.4905 2.0097,10.4329L3.7919,10.1347C3.966,9.5751 4.1916,9.0322 4.4637,8.5151L3.3981,7.0224C3.0467,6.5961 3.0784,5.9497 3.4885,5.5404L5.54,3.4885C5.9354,3.0939 6.6124,3.061 7.043,3.4132L8.5159,4.4637C9.0327,4.1913 9.5756,3.966 10.1355,3.7919L10.4365,1.9839C10.4901,1.4342 10.9703,1 11.5497,1L14.4507,1C15.0293,1 15.5091,1.4338 15.5675,2.0089L15.8653,3.7919C16.4245,3.966 16.9674,4.1913 17.4845,4.4637L18.9776,3.3977C19.1557,3.2502 19.4079,3.1602 19.6664,3.1602C19.9663,3.1602 20.2478,3.2767 20.4596,3.4885L22.5107,5.5404C22.92,5.9485 22.9529,6.5945 22.5868,7.043L21.5363,8.5151C21.8091,9.0323 22.034,9.5752 22.2081,10.1347L24.0165,10.4365C24.5662,10.4905 25,10.9703 25,11.5497L25,14.4503C25,15.0305 24.5658,15.5099 23.9895,15.5658L22.2081,15.8636C22.034,16.4236 21.8087,16.9669 21.5363,17.484L22.6023,18.9764C22.9533,19.4043 22.9203,20.0511 22.5103,20.4596L20.4596,22.5103C20.0658,22.9045 19.3872,22.9393 18.9554,22.5852L17.4845,21.5355C16.9657,21.8087 16.4229,22.0344 15.8653,22.2077L15.5631,24.0165C15.5091,24.5658 15.0293,25 14.4503,25Z" fill="none" stroke="#FFFFFF" stroke-width="1.8"/>
    <path d="M13,13m-5,0a5,5 0,1 1,10 0a5,5 0,1 1,-10 0" fill="none" stroke="#FFFFFF" stroke-width="1.8"/>
</svg>
