<svg viewBox="0 0 112 46" version="1.1" xmlns="http://www.w3.org/2000/svg" style="height: 3em">
    <title>NHS app</title>
    <desc></desc>
    <g id="nhso_logo" fill="#FFFFFF" fill-rule="nonzero">
        <path id="nhs_logo" d="M112,44 L112,0 L0,0 L0,44 L112,44 Z M45.0322947,4.24988235 L37.2997443,
            39.6776471 L25.1652619,39.6776471 L17.5387821,15.1618824 L17.4327114,15.1618824
            L12.3572308,39.6776471 L3.18211952,39.6776471 L10.9517947,4.24988235 L23.1499195,
            4.24988235 L30.6279004,28.8174118 L30.7286675,28.8174118 L35.8306658,4.24988235
            L45.0322947,4.24988235 Z M79.7333081,4.24988235 L72.1545601,39.6776471 L62.3854532,
            39.6776471 L65.6259115,24.5054118 L54.0960318,24.5054118 L50.8290558,39.6776471
            L41.0546453,39.6776471 L48.6386968,4.24988235 L58.4078038,4.24988235 L55.5385927,
            17.8018824 L67.084383,17.8018824 L69.9642012,4.24988235 L79.7333081,4.24988235 Z
            M107.804906,5.21270588 L105.450137,12.2682353 C102.926799,11.1459235 100.177068,
            10.5921688 97.4046785,10.648 C93.5384033,10.648 90.398712,11.2018824 90.398712,
            14.0489412 C90.398712,19.0701176 104.564447,17.1962353 104.564447,27.9581176
            C104.564447,37.752 95.2037125,40.2936471 86.7392746,40.2936471 C82.9063442,40.2003017
            79.105693,39.5834878 75.4480538,38.4611765 L77.7497869,31.2503529 C79.6802728,32.472
            83.5518515,33.2847059 86.7657922,33.2847059 C89.7994128,33.2847059 94.551378,
            32.7256471 94.551378,29.0710588 C94.551378,23.3769412 80.3856426,25.5148235
            80.3856426,15.5242353 C80.3856426,6.38258824 88.6485463,3.61835294 96.6462733,
            3.61835294 C101.143669,3.61835294 105.375888,4.07905882 107.831423,5.17129412
            L107.804906,5.21270588 Z"></path>
    </g>
</svg>