<?xml version="1.0" encoding="UTF-8"?>
<svg width="129px" height="172px" viewBox="0 0 129 172" version="1.1" xmlns="http://www.w3.org/2000/svg" xmlns:xlink="http://www.w3.org/1999/xlink">
    <!-- Generator: Sketch 50.2 (55047) - http://www.bohemiancoding.com/sketch -->
    <title>Group 2</title>
    <desc>Created with Sketch.</desc>
    <defs></defs>
    <g id="Loading-/-Onboarding" stroke="none" stroke-width="1" fill="none" fill-rule="evenodd" opacity="0.1" stroke-linecap="round" stroke-linejoin="round">
        <g id="Onboard-Illu-3.1-intro" transform="translate(-123.000000, -124.000000)" stroke="#FFFFFF" stroke-width="6">
            <g id="Group-2" transform="translate(126.000000, 127.000000)">
                <path d="M44.67475,80.3705907 C44.67475,80.3705907 46.3578056,98.2786093 14.6871574,105.162998 C4.43665741,108.376943 0.000768518521,119.11622 0.000768518521,127.194887 L0.000768518521,141.271072 C0.000768518521,149.348202 6.22423148,154.065369 14.6871574,157.18248 C14.6871574,157.18248 34.6793981,165.749924 61.1978981,165.749924 C87.7179352,165.749924 107.708639,157.18248 107.708639,157.18248 C115.868769,153.306072 122.396565,149.348202 122.396565,141.271072 L122.396565,127.194887 C122.396565,119.11622 118.265009,108.069535 107.708639,105.162998 C78.7923611,97.8190352 77.1108426,80.3705907 77.1108426,80.3705907" id="Stroke-1"></path>
                <path d="M62.4962333,83.8416815 C44.2439185,83.8416815 29.3085296,68.9078296 29.3085296,50.6539778 L29.3085296,33.1870889 C29.3085296,14.933237 44.2439185,-0.000614814816 62.4962333,-0.000614814816 C80.7500852,-0.000614814816 95.683937,14.933237 95.683937,33.1870889 L95.683937,50.6539778 C95.683937,68.9078296 80.7500852,83.8416815 62.4962333,83.8416815 Z" id="Stroke-3"></path>
            </g>
        </g>
    </g>
</svg>