<?xml version="1.0" encoding="UTF-8"?>
<svg width="375px" height="556px" viewBox="0 0 375 556" version="1.1" xmlns="http://www.w3.org/2000/svg" xmlns:xlink="http://www.w3.org/1999/xlink">
    <!-- Generator: Sketch 52.3 (67297) - http://www.bohemiancoding.com/sketch -->
    <title>bg_plus_2</title>
    <desc>Created with Sketch.</desc>
    <g id="Pre-registration" stroke="none" stroke-width="1" fill="none" fill-rule="evenodd" opacity="0.2">
        <g id="Onboard.2" transform="translate(0.000000, -26.000000)" fill="#FFFFFF">
            <g id="bg_plus_2" transform="translate(-21.000000, 26.000000)">
                <path d="M379.935029,33.9350291 L379.935029,8.06497092 C379.935029,3.62899449 383.564023,0 388,0 C392.435977,0 396.065942,3.62899449 396.065942,8.06497092 L396.065942,33.9350291 L421.935029,33.9350291 C426.371006,33.9350291 430,37.5640228 430,42 C430,46.4359772 426.371006,50.0649709 421.935029,50.0649709 L396.065942,50.0649709 L396.065942,75.9350291 C396.065942,80.3710055 392.435977,84 388,84 C383.564023,84 379.935029,80.3710055 379.935029,75.9350291 L379.935029,50.0649709 L354.065942,50.0649709 C349.629965,50.0649709 346,46.4359772 346,42 C346,37.5640228 349.629965,33.9350291 354.065942,33.9350291 L379.935029,33.9350291 Z" id="Path" opacity="0.7"></path>
                <path d="M176.363486,506.282273 L150.718016,506.282273 L150.718016,480.63584 C150.718016,476.238208 147.119428,472.640583 142.721797,472.640583 C138.324165,472.640583 134.72654,476.238208 134.72654,480.63584 L134.72654,506.282273 L109.081069,506.282273 C104.682475,506.282273 101.08485,509.879898 101.08485,514.27753 C101.08485,518.675161 104.682475,522.272786 109.081069,522.272786 L134.72654,522.272786 L134.72654,547.91922 C134.72654,552.316851 138.324165,555.914476 142.721797,555.914476 C147.119428,555.914476 150.718016,552.316851 150.718016,547.91922 L150.718016,522.272786 L176.363486,522.272786 C180.761118,522.272786 184.358743,518.675161 184.358743,514.27753 C184.358743,509.879898 180.761118,506.282273 176.363486,506.282273" id="Path"></path>
                <path d="M312.078975,506.047034 L332.113105,506.047034 L332.113105,483.903294 C332.113105,480.106275 334.923443,477 338.358727,477 C341.79401,477 344.604348,480.106275 344.604348,483.903294 L344.604348,506.047034 L364.638478,506.047034 C368.073755,506.047034 370.8841,509.153308 370.8841,512.950328 C370.8841,516.747348 368.073755,519.853622 364.638478,519.853622 L344.604348,519.853622 L344.604348,541.997363 C344.604348,545.794382 341.79401,548.900657 338.358727,548.900657 C334.923443,548.900657 332.113105,545.794382 332.113105,541.997363 L332.113105,519.853622 L312.078975,519.853622 C308.643698,519.853622 305.833353,516.747348 305.833353,512.950328 C305.833353,509.153308 308.643698,506.047034 312.078975,506.047034" id="Path" opacity="0.5"></path>
                <path d="M8.06497092,505.935029 L33.9350291,505.935029 L33.9350291,480.064971 C33.9350291,475.628994 37.5640228,472 42,472 C46.4359772,472 50.0649709,475.628994 50.0649709,480.064971 L50.0649709,505.935029 L75.9350291,505.935029 C80.3710055,505.935029 84,509.564023 84,514 C84,518.435977 80.3710055,522.064971 75.9350291,522.064971 L50.0649709,522.064971 L50.0649709,547.935029 C50.0649709,552.371006 46.4359772,556 42,556 C37.5640228,556 33.9350291,552.371006 33.9350291,547.935029 L33.9350291,522.064971 L8.06497092,522.064971 C3.62899449,522.064971 0,518.435977 0,514 C0,509.564023 3.62899449,505.935029 8.06497092,505.935029" id="Path"></path>
                <path d="M275.749564,114.192484 L294.192486,114.192484 L294.192486,95.7495657 C294.192486,92.5871318 296.779614,90 299.94205,90 C303.104486,90 305.691614,92.5871318 305.691614,95.7495657 L305.691614,114.192484 L324.134535,114.192484 C327.296966,114.192484 329.8841,116.779615 329.8841,119.94205 C329.8841,123.104484 327.296966,125.691615 324.134535,125.691615 L305.691614,125.691615 L305.691614,144.134534 C305.691614,147.296968 303.104486,149.8841 299.94205,149.8841 C296.779614,149.8841 294.192486,147.296968 294.192486,144.134534 L294.192486,125.691615 L275.749564,125.691615 C272.587133,125.691615 270,123.104484 270,119.94205 C270,116.779615 272.587133,114.192484 275.749564,114.192484" id="Path-Copy-4" opacity="0.5"></path>
                <path d="M275.749564,37.192484 L294.192486,37.192484 L294.192486,18.7495657 C294.192486,15.5871318 296.779614,13 299.94205,13 C303.104486,13 305.691614,15.5871318 305.691614,18.7495657 L305.691614,37.192484 L324.134535,37.192484 C327.296966,37.192484 329.8841,39.7796152 329.8841,42.9420498 C329.8841,46.1044843 327.296966,48.6916155 324.134535,48.6916155 L305.691614,48.6916155 L305.691614,67.1345338 C305.691614,70.2969678 303.104486,72.8840995 299.94205,72.8840995 C296.779614,72.8840995 294.192486,70.2969678 294.192486,67.1345338 L294.192486,48.6916155 L275.749564,48.6916155 C272.587133,48.6916155 270,46.1044843 270,42.9420498 C270,39.7796152 272.587133,37.192484 275.749564,37.192484" id="Path-Copy-5" opacity="0.5"></path>
            </g>
        </g>
    </g>
</svg>