<?xml version="1.0" encoding="iso-8859-1"?>
<svg width="1.5em" height="1.5em" viewBox="0 0 21.9 21.9" enable-background="new 0 0 21.9 21.9" version="1.1" xmlns="http://www.w3.org/2000/svg" xmlns:xlink="http://www.w3.org/1999/xlink">
  <path d="M17 18.5c-.4 0-.8-.1-1.1-.4l-10-10c-.6-.6-.6-1.6 0-2.1.6-.6 1.5-.6 2.1 0l10 10c.6.6.6 1.5 0 2.1-.3.3-.6.4-1 .4z"></path>
  <path d="M7 18.5c-.4 0-.8-.1-1.1-.4-.6-.6-.6-1.5 0-2.1l10-10c.6-.6 1.5-.6 2.1 0 .6.6.6 1.5 0 2.1l-10 10c-.3.3-.6.4-1 .4z"></path>
</svg>